<svg width="48" height="45" viewBox="0 0 48 45" fill="none" xmlns="http://www.w3.org/2000/svg">
<path d="M24.0018 0.24707C17.4837 0.24707 16.6657 0.273259 14.1056 0.380307C11.5506 0.487815 9.8066 0.859497 8.28059 1.40485C6.70207 1.96811 5.36306 2.72159 4.02904 3.94782C2.69403 5.17359 1.87402 6.40396 1.25901 7.85393C0.664007 9.25659 0.259003 10.8596 0.144002 13.2064C0.0300004 15.5587 0 16.3107 0 22.2999C0 28.2891 0.0290008 29.0385 0.145002 31.3908C0.262503 33.7385 0.667007 35.341 1.26001 36.7432C1.87352 38.1936 2.69353 39.424 4.02804 40.6498C5.36156 41.8765 6.70057 42.6318 8.27809 43.195C9.8051 43.7404 11.5496 44.1121 14.1041 44.2196C16.6642 44.3266 17.4817 44.3528 23.9993 44.3528C30.5178 44.3528 31.3333 44.3266 33.8934 44.2196C36.4484 44.1121 38.1944 43.7404 39.7214 43.195C41.2994 42.6318 42.6364 41.8765 43.97 40.6498C45.305 39.424 46.125 38.1936 46.74 36.7437C47.33 35.341 47.735 33.738 47.855 31.3912C47.97 29.0389 48 28.2891 48 22.2999C48 16.3107 47.97 15.5591 47.855 13.2068C47.735 10.8591 47.33 9.25659 46.74 7.85439C46.125 6.40396 45.305 5.17359 43.97 3.94782C42.6349 2.72113 41.2999 1.96765 39.7199 1.40485C38.1899 0.859497 36.4449 0.487815 33.8899 0.380307C31.3298 0.273259 30.5148 0.24707 23.9947 0.24707H24.0018ZM21.8487 4.22118C22.4877 4.22026 23.2007 4.22118 24.0018 4.22118C30.4098 4.22118 31.1693 4.24232 33.6999 4.34799C36.0399 4.4463 37.3099 4.80558 38.1559 5.10743C39.2759 5.50714 40.0744 5.98495 40.9139 6.7568C41.7539 7.52865 42.2739 8.26375 42.7099 9.29288C43.0385 10.0693 43.43 11.2363 43.5365 13.3864C43.6515 15.7112 43.6765 16.4095 43.6765 22.2949C43.6765 28.1802 43.6515 28.8786 43.5365 31.2033C43.4295 33.3535 43.0385 34.5205 42.7099 35.2969C42.2749 36.326 41.7539 37.0588 40.9139 37.8302C40.0739 38.6021 39.2764 39.0799 38.1559 39.4796C37.3109 39.7828 36.0399 40.1412 33.6999 40.2395C31.1698 40.3452 30.4098 40.3681 24.0018 40.3681C17.5932 40.3681 16.8337 40.3452 14.3036 40.2395C11.9636 40.1403 10.6936 39.781 9.8471 39.4791C8.72709 39.0794 7.92708 38.6016 7.08707 37.8298C6.24707 37.0579 5.72706 36.3247 5.29106 35.2951C4.96255 34.5186 4.57105 33.3516 4.46455 31.2015C4.34955 28.8768 4.32655 28.1784 4.32655 22.2894C4.32655 16.4003 4.34955 15.7057 4.46455 13.3809C4.57155 11.2308 4.96255 10.0638 5.29106 9.28645C5.72606 8.25732 6.24707 7.52222 7.08707 6.75037C7.92708 5.97852 8.72709 5.50071 9.8471 5.10008C10.6931 4.79685 11.9636 4.43849 14.3036 4.33972C16.5177 4.24783 17.3757 4.22026 21.8487 4.21567V4.22118Z" fill="white"/>
<path d="M36.7613 7.82871C36.1916 7.82871 35.6348 7.98393 35.1611 8.27476C34.6875 8.56558 34.3183 8.97894 34.1004 9.46255C33.8824 9.94616 33.8254 10.4783 33.9367 10.9917C34.0479 11.505 34.3223 11.9766 34.7251 12.3466C35.128 12.7167 35.6413 12.9687 36.2 13.0707C36.7588 13.1727 37.3379 13.1201 37.8641 12.9197C38.3903 12.7193 38.8401 12.3799 39.1564 11.9446C39.4728 11.5093 39.6415 10.9976 39.6413 10.4741C39.6413 9.01313 38.3513 7.82871 36.7613 7.82871Z" fill="white"/>
<path fill-rule="evenodd" clip-rule="evenodd" d="M23.9501 10.9207C17.1436 10.9207 11.625 15.9915 11.625 22.2458C11.625 28.5001 17.1436 33.5685 23.9501 33.5685C30.7567 33.5685 36.2738 28.5001 36.2738 22.2458C36.2738 15.9915 30.7567 10.9207 23.9501 10.9207ZM24 29.5361C28.3493 29.5361 31.875 26.2964 31.875 22.3C31.875 18.3036 28.3493 15.0639 24 15.0639C19.6508 15.0639 16.125 18.3036 16.125 22.3C16.125 26.2964 19.6508 29.5361 24 29.5361Z" fill="white"/>
</svg>
